<svg width="748pt" height="1367pt" viewBox="0.00 0.00 748.02 1367.26" xmlns="http://www.w3.org/2000/svg" xlink="http://www.w3.org/1999/xlink" style="max-width:100%;height:auto"><g id="graph0" class="graph" transform="scale(1 1) rotate(0) translate(4 1363.2626)"><title>graphname</title><polygon fill="#ffffff" stroke="transparent" points="-4,4 -4,-1363.2626 744.0197,-1363.2626 744.0197,4 -4,4"></polygon><g id="clust1" class="cluster"><title>cluster_legend</title><polygon fill="none" stroke="#000000" points="8,-975.8626 8,-1351.2626 136,-1351.2626 136,-975.8626 8,-975.8626"></polygon><text text-anchor="middle" x="72" y="-1334.6626" font-family="Times,serif" font-size="14.00" fill="#000000">Legend</text></g><g id="node1" class="node"><title>gatsby</title><ellipse fill="#ffffff" stroke="#000000" cx="72" cy="-1228.4626" rx="38.2818" ry="18"></ellipse><text text-anchor="middle" x="72" y="-1224.2626" font-family="Times,serif" font-size="14.00" fill="#000000">Gatsby</text></g><g id="node2" class="node"><title>redux</title><polygon fill="#87ceeb" stroke="#000000" points="128.2836,-1174.4626 15.7164,-1174.4626 15.7164,-1138.4626 128.2836,-1138.4626 128.2836,-1174.4626"></polygon><text text-anchor="middle" x="72" y="-1152.2626" font-family="Times,serif" font-size="14.00" fill="#000000">redux namespace</text></g><g id="node3" class="node"><title>cache</title><path fill="#ffe4b5" stroke="#000000" d="M111.0811,-1099.1898C111.0811,-1100.9957 93.5643,-1102.4626 72,-1102.4626 50.4357,-1102.4626 32.9189,-1100.9957 32.9189,-1099.1898 32.9189,-1099.1898 32.9189,-1069.7353 32.9189,-1069.7353 32.9189,-1067.9295 50.4357,-1066.4626 72,-1066.4626 93.5643,-1066.4626 111.0811,-1067.9295 111.0811,-1069.7353 111.0811,-1069.7353 111.0811,-1099.1898 111.0811,-1099.1898"></path><path fill="none" stroke="#000000" d="M111.0811,-1099.1898C111.0811,-1097.384 93.5643,-1095.9171 72,-1095.9171 50.4357,-1095.9171 32.9189,-1097.384 32.9189,-1099.1898"></path><text text-anchor="middle" x="72" y="-1080.2626" font-family="Times,serif" font-size="14.00" fill="#000000">site/.cache/</text></g><g id="node4" class="node"><title>public</title><path fill="#98fb98" stroke="#000000" d="M111.2177,-1016.5898C111.2177,-1018.3957 93.6397,-1019.8626 72,-1019.8626 50.3603,-1019.8626 32.7823,-1018.3957 32.7823,-1016.5898 32.7823,-1016.5898 32.7823,-987.1353 32.7823,-987.1353 32.7823,-985.3295 50.3603,-983.8626 72,-983.8626 93.6397,-983.8626 111.2177,-985.3295 111.2177,-987.1353 111.2177,-987.1353 111.2177,-1016.5898 111.2177,-1016.5898"></path><path fill="none" stroke="#000000" d="M111.2177,-1016.5898C111.2177,-1014.784 93.6397,-1013.3171 72,-1013.3171 50.3603,-1013.3171 32.7823,-1014.784 32.7823,-1016.5898"></path><text text-anchor="middle" x="72" y="-997.6626" font-family="Times,serif" font-size="14.00" fill="#000000">site/public/</text></g><g id="node5" class="node"><title>siteData</title><path fill="#c0c0c0" stroke="#000000" d="M127.7367,-1315.1898C127.7367,-1316.9957 102.7546,-1318.4626 72,-1318.4626 41.2454,-1318.4626 16.2633,-1316.9957 16.2633,-1315.1898 16.2633,-1315.1898 16.2633,-1285.7353 16.2633,-1285.7353 16.2633,-1283.9295 41.2454,-1282.4626 72,-1282.4626 102.7546,-1282.4626 127.7367,-1283.9295 127.7367,-1285.7353 127.7367,-1285.7353 127.7367,-1315.1898 127.7367,-1315.1898"></path><path fill="none" stroke="#000000" d="M127.7367,-1315.1898C127.7367,-1313.384 102.7546,-1311.9171 72,-1311.9171 41.2454,-1311.9171 16.2633,-1313.384 16.2633,-1315.1898"></path><text text-anchor="middle" x="72" y="-1296.2626" font-family="Times,serif" font-size="14.00" fill="#000000">site/external data</text></g><g id="node6" class="node"><title>dataSource</title><path fill="#c0c0c0" stroke="#000000" d="M391.9314,-1315.1898C391.9314,-1316.9957 347.5888,-1318.4626 293,-1318.4626 238.4112,-1318.4626 194.0686,-1316.9957 194.0686,-1315.1898 194.0686,-1315.1898 194.0686,-1285.7353 194.0686,-1285.7353 194.0686,-1283.9295 238.4112,-1282.4626 293,-1282.4626 347.5888,-1282.4626 391.9314,-1283.9295 391.9314,-1285.7353 391.9314,-1285.7353 391.9314,-1315.1898 391.9314,-1315.1898"></path><path fill="none" stroke="#000000" d="M391.9314,-1315.1898C391.9314,-1313.384 347.5888,-1311.9171 293,-1311.9171 238.4112,-1311.9171 194.0686,-1313.384 194.0686,-1315.1898"></path><text text-anchor="middle" x="293" y="-1296.2626" font-family="Times,serif" font-size="14.00" fill="#000000">data sources. e.g. file, contentful</text></g><g id="node7" class="node"><title>sourceNodes</title><g id="a_node7"><a title="source nodes" class="css-0" href="/docs/node-creation/"><ellipse fill="#ffffff" stroke="#000000" cx="293" cy="-1228.4626" rx="61.359" ry="18"></ellipse><text text-anchor="middle" x="293" y="-1224.2626" font-family="Times,serif" font-size="14.00" fill="#000000">source nodes</text></a></g></g><g id="edge5" class="edge"><title>dataSource-&gt;sourceNodes</title><path fill="none" stroke="#000000" d="M293,-1282.2939C293,-1274.5935 293,-1265.4369 293,-1256.8792"></path><polygon fill="#000000" stroke="#000000" points="296.5001,-1256.8758 293,-1246.8758 289.5001,-1256.8759 296.5001,-1256.8758"></polygon></g><g id="node8" class="node"><title>nodes</title><g id="a_node8"><a title="nodes" class="css-0" href="/docs/node-creation/"><polygon fill="#87ceeb" stroke="#000000" points="227,-1174.4626 173,-1174.4626 173,-1138.4626 227,-1138.4626 227,-1174.4626"></polygon><text text-anchor="middle" x="200" y="-1152.2626" font-family="Times,serif" font-size="14.00" fill="#000000">nodes</text></a></g></g><g id="edge6" class="edge"><title>sourceNodes-&gt;nodes</title><path fill="none" stroke="#000000" d="M270.9603,-1211.3996C259.2398,-1202.3257 244.621,-1191.0079 231.703,-1181.0069"></path><polygon fill="#000000" stroke="#000000" points="233.5571,-1178.016 223.5073,-1174.6617 229.2719,-1183.551 233.5571,-1178.016"></polygon></g><g id="node9" class="node"><title>nodesTouched</title><g id="a_node9"><a title="touchedNodes" class="css-0" href="/docs/node-creation/#freshstale-nodes"><polygon fill="#87ceeb" stroke="#000000" points="341.0856,-1174.4626 244.9144,-1174.4626 244.9144,-1138.4626 341.0856,-1138.4626 341.0856,-1174.4626"></polygon><text text-anchor="middle" x="293" y="-1152.2626" font-family="Times,serif" font-size="14.00" fill="#000000">touchedNodes</text></a></g></g><g id="edge7" class="edge"><title>sourceNodes-&gt;nodesTouched</title><path fill="none" stroke="#000000" d="M293,-1210.2939C293,-1202.5935 293,-1193.4369 293,-1184.8792"></path><polygon fill="#000000" stroke="#000000" points="296.5001,-1184.8758 293,-1174.8758 289.5001,-1184.8759 296.5001,-1184.8758"></polygon></g><g id="node10" class="node"><title>rootNodeMap</title><g id="a_node10"><a title="rootNodeMap" class="css-0" href="/docs/node-tracking/"><polygon fill="#87ceeb" stroke="#000000" points="453.0328,-1174.4626 358.9672,-1174.4626 358.9672,-1138.4626 453.0328,-1138.4626 453.0328,-1174.4626"></polygon><text text-anchor="middle" x="406" y="-1152.2626" font-family="Times,serif" font-size="14.00" fill="#000000">rootNodeMap</text></a></g></g><g id="edge8" class="edge"><title>sourceNodes-&gt;rootNodeMap</title><path fill="none" stroke="#000000" d="M318.9245,-1211.9443C333.6586,-1202.5562 352.3626,-1190.6386 368.6559,-1180.2571"></path><polygon fill="#000000" stroke="#000000" points="370.8664,-1182.9987 377.4192,-1174.6734 367.1048,-1177.0952 370.8664,-1182.9987"></polygon></g><g id="node12" class="node"><title>generateSchema</title><g id="a_node12"><a title="generate schema" class="css-0" href="/docs/schema-generation/"><ellipse fill="#ffffff" stroke="#000000" cx="387" cy="-1084.4626" rx="75.2189" ry="18"></ellipse><text text-anchor="middle" x="387" y="-1080.2626" font-family="Times,serif" font-size="14.00" fill="#000000">generate schema</text></a></g></g><g id="edge9" class="edge"><title>nodes-&gt;generateSchema</title><path fill="none" stroke="#000000" d="M227.3577,-1142.3589C230.2533,-1140.994 233.1724,-1139.6699 236,-1138.4626 267.5159,-1125.0059 303.633,-1112.006 332.641,-1102.1344"></path><polygon fill="#000000" stroke="#000000" points="333.8343,-1105.4257 342.1891,-1098.9104 331.5949,-1098.7935 333.8343,-1105.4257"></polygon></g><g id="node13" class="node"><title>schema</title><polygon fill="#87ceeb" stroke="#000000" points="417.9566,-1022.4645 318.0434,-1022.4645 318.0434,-981.2607 417.9566,-981.2607 417.9566,-1022.4645"></polygon><text text-anchor="start" x="326.0217" y="-1006.0626" font-family="Times,serif" font-size="14.00" fill="#000000">schema</text><text text-anchor="middle" x="368" y="-989.2626" font-family="Times,serif" font-size="14.00" fill="#000000"> (inc resolvers)</text></g><g id="edge10" class="edge"><title>nodes-&gt;schema</title><path fill="none" stroke="#000000" d="M219.6005,-1138.4254C248.8111,-1111.5448 303.9876,-1060.7693 338.2092,-1029.2772"></path><polygon fill="#000000" stroke="#000000" points="340.6055,-1031.8285 345.5939,-1022.4815 335.8654,-1026.6776 340.6055,-1031.8285"></polygon></g><g id="edge12" class="edge"><title>rootNodeMap-&gt;generateSchema</title><path fill="none" stroke="#000000" d="M401.2055,-1138.2939C399.1511,-1130.5089 396.704,-1121.2355 394.4244,-1112.5973"></path><polygon fill="#000000" stroke="#000000" points="397.7948,-1111.6518 391.8591,-1102.8758 391.0265,-1113.4379 397.7948,-1111.6518"></polygon></g><g id="node11" class="node"><title>pluginResolvers</title><g id="a_node11"><a title="plugin resolvers" class="css-0" href="/docs/schema-input-gql/#inferring-input-filters-from-plugin-fields"><path fill="#c0c0c0" stroke="#000000" d="M576.8116,-1171.1898C576.8116,-1172.9957 553.1406,-1174.4626 524,-1174.4626 494.8594,-1174.4626 471.1884,-1172.9957 471.1884,-1171.1898 471.1884,-1171.1898 471.1884,-1141.7353 471.1884,-1141.7353 471.1884,-1139.9295 494.8594,-1138.4626 524,-1138.4626 553.1406,-1138.4626 576.8116,-1139.9295 576.8116,-1141.7353 576.8116,-1141.7353 576.8116,-1171.1898 576.8116,-1171.1898"></path><path fill="none" stroke="#000000" d="M576.8116,-1171.1898C576.8116,-1169.384 553.1406,-1167.9171 524,-1167.9171 494.8594,-1167.9171 471.1884,-1169.384 471.1884,-1171.1898"></path><text text-anchor="middle" x="524" y="-1152.2626" font-family="Times,serif" font-size="14.00" fill="#000000">plugin resolvers</text></a></g></g><g id="edge11" class="edge"><title>pluginResolvers-&gt;generateSchema</title><path fill="none" stroke="#000000" d="M490.1348,-1138.6648C471.1698,-1128.6978 447.3982,-1116.2047 427.4582,-1105.7253"></path><polygon fill="#000000" stroke="#000000" points="429.0775,-1102.6224 418.5972,-1101.0684 425.8209,-1108.8188 429.0775,-1102.6224"></polygon></g><g id="edge13" class="edge"><title>generateSchema-&gt;schema</title><path fill="none" stroke="#000000" d="M382.7833,-1066.131C380.5065,-1056.2331 377.6362,-1043.7546 375.0318,-1032.4323"></path><polygon fill="#000000" stroke="#000000" points="378.3921,-1031.4273 372.7394,-1022.4664 371.5702,-1032.9965 378.3921,-1031.4273"></polygon></g><g id="node15" class="node"><title>createPages</title><g id="a_node15"><a title="site.createPages" class="css-0" href="/docs/page-creation/"><ellipse fill="#ffffff" stroke="#000000" cx="254" cy="-919.2626" rx="72.3631" ry="18"></ellipse><text text-anchor="middle" x="254" y="-915.0626" font-family="Times,serif" font-size="14.00" fill="#000000">site.createPages</text></a></g></g><g id="edge14" class="edge"><title>schema-&gt;createPages</title><path fill="none" stroke="#000000" d="M339.5271,-981.2322C323.2407,-969.4317 302.7679,-954.5979 285.9361,-942.4022"></path><polygon fill="#000000" stroke="#000000" points="287.6589,-939.3283 277.5075,-936.2952 283.5517,-944.9968 287.6589,-939.3283"></polygon></g><g id="node19" class="node"><title>runQueries</title><g id="a_node19"><a title="extract and run queries" class="css-0" href="/docs/query-behind-the-scenes/"><ellipse fill="#ffffff" stroke="#000000" cx="372" cy="-775.2626" rx="99.5002" ry="18"></ellipse><text text-anchor="middle" x="372" y="-771.0626" font-family="Times,serif" font-size="14.00" fill="#000000">extract and run queries</text></a></g></g><g id="edge19" class="edge"><title>schema-&gt;runQueries</title><path fill="none" stroke="#000000" d="M368.3691,-980.9508C369.0889,-940.175 370.6807,-850.0005 371.4965,-803.7857"></path><polygon fill="#000000" stroke="#000000" points="374.9998,-803.6266 371.6769,-793.5664 368.0009,-803.503 374.9998,-803.6266"></polygon></g><g id="node14" class="node"><title>componentFiles</title><path fill="#c0c0c0" stroke="#000000" d="M300.526,-1025.3447C300.526,-1028.224 273.8455,-1030.5629 241,-1030.5629 208.1545,-1030.5629 181.474,-1028.224 181.474,-1025.3447 181.474,-1025.3447 181.474,-978.3805 181.474,-978.3805 181.474,-975.5011 208.1545,-973.1622 241,-973.1622 273.8455,-973.1622 300.526,-975.5011 300.526,-978.3805 300.526,-978.3805 300.526,-1025.3447 300.526,-1025.3447"></path><path fill="none" stroke="#000000" d="M300.526,-1025.3447C300.526,-1022.4653 273.8455,-1020.1264 241,-1020.1264 208.1545,-1020.1264 181.474,-1022.4653 181.474,-1025.3447"></path><text text-anchor="start" x="189.487" y="-1006.0626" font-family="Times,serif" font-size="14.00" fill="#000000">React components</text><text text-anchor="middle" x="241" y="-989.2626" font-family="Times,serif" font-size="14.00" fill="#000000"> (src/template.js)</text></g><g id="edge15" class="edge"><title>componentFiles-&gt;createPages</title><path fill="none" stroke="#000000" d="M245.5468,-972.9731C246.8297,-964.8215 248.2246,-955.9588 249.5045,-947.8264"></path><polygon fill="#000000" stroke="#000000" points="253.0044,-948.1001 251.1018,-937.6776 246.0895,-947.0118 253.0044,-948.1001"></polygon></g><g id="node16" class="node"><title>pages</title><polygon fill="#87ceeb" stroke="#000000" points="234,-865.2626 180,-865.2626 180,-829.2626 234,-829.2626 234,-865.2626"></polygon><text text-anchor="middle" x="207" y="-843.0626" font-family="Times,serif" font-size="14.00" fill="#000000">pages</text></g><g id="edge16" class="edge"><title>createPages-&gt;pages</title><path fill="none" stroke="#000000" d="M242.382,-901.4648C236.9436,-893.1336 230.353,-883.0374 224.341,-873.8276"></path><polygon fill="#000000" stroke="#000000" points="227.2079,-871.8163 218.8108,-865.3557 221.3462,-875.6427 227.2079,-871.8163"></polygon></g><g id="node17" class="node"><title>components</title><polygon fill="#87ceeb" stroke="#000000" points="335.6557,-865.2626 252.3443,-865.2626 252.3443,-829.2626 335.6557,-829.2626 335.6557,-865.2626"></polygon><text text-anchor="middle" x="294" y="-843.0626" font-family="Times,serif" font-size="14.00" fill="#000000">components</text></g><g id="edge17" class="edge"><title>createPages-&gt;components</title><path fill="none" stroke="#000000" d="M264.0937,-901.0939C268.5597,-893.055 273.9075,-883.4291 278.8379,-874.5544"></path><polygon fill="#000000" stroke="#000000" points="281.9735,-876.1172 283.7704,-865.6758 275.8544,-872.7177 281.9735,-876.1172"></polygon></g><g id="edge20" class="edge"><title>pages-&gt;runQueries</title><path fill="none" stroke="#000000" d="M234.0326,-833.5025C237.0443,-832.0423 240.0783,-830.6027 243,-829.2626 268.5056,-817.5638 297.2746,-805.4218 321.1616,-795.6212"></path><polygon fill="#000000" stroke="#000000" points="322.8014,-798.7322 330.7356,-791.7109 320.1546,-792.2519 322.8014,-798.7322"></polygon></g><g id="node23" class="node"><title>writePages</title><g id="a_node23"><a title="writePages" class="css-0" href="/docs/write-pages/"><ellipse fill="#ffffff" stroke="#000000" cx="245" cy="-610.0626" rx="53.3052" ry="18"></ellipse><text text-anchor="middle" x="245" y="-605.8626" font-family="Times,serif" font-size="14.00" fill="#000000">writePages</text></a></g></g><g id="edge27" class="edge"><title>pages-&gt;writePages</title><path fill="none" stroke="#000000" d="M208.6197,-829.2011C211.7441,-796.204 219.3413,-724.0474 231,-664.0626 232.637,-655.6399 234.8177,-646.5797 236.9697,-638.3318"></path><polygon fill="#000000" stroke="#000000" points="240.4159,-638.9944 239.6371,-628.4282 233.6568,-637.1739 240.4159,-638.9944"></polygon></g><g id="node37" class="node"><title>buildHtml</title><g id="a_node37"><a title="build-html.js" class="css-0" href="/docs/html-generation/"><ellipse fill="#ffffff" stroke="#000000" cx="149" cy="-111.2" rx="60.8314" ry="18"></ellipse><text text-anchor="middle" x="149" y="-107" font-family="Times,serif" font-size="14.00" fill="#000000">build-html.js</text></a></g></g><g id="edge48" class="edge"><title>pages-&gt;buildHtml</title><path fill="none" stroke="#000000" d="M179.8582,-836.0384C134.2095,-815.1418 47,-765.6666 47,-692.6626 47,-692.6626 47,-692.6626 47,-288.6313 47,-229.9305 61.8699,-214.3268 94,-165.2 101.1528,-154.2634 110.852,-143.8128 120.114,-135.0688"></path><polygon fill="#000000" stroke="#000000" points="122.6786,-137.4675 127.7257,-128.152 117.971,-132.2869 122.6786,-137.4675"></polygon></g><g id="edge21" class="edge"><title>components-&gt;runQueries</title><path fill="none" stroke="#000000" d="M313.6827,-829.0939C323.249,-820.2635 334.8898,-809.5182 345.2477,-799.957"></path><polygon fill="#000000" stroke="#000000" points="347.8888,-802.2823 352.8629,-792.9276 343.1408,-797.1386 347.8888,-802.2823"></polygon></g><g id="edge26" class="edge"><title>components-&gt;writePages</title><path fill="none" stroke="#000000" d="M281.4845,-829.1141C275.1597,-819.0122 267.9963,-805.9464 264,-793.2626 247.3675,-740.472 244.5407,-675.3153 244.4542,-638.6497"></path><polygon fill="#000000" stroke="#000000" points="247.9561,-638.247 244.5031,-628.2307 240.9561,-638.2141 247.9561,-638.247"></polygon></g><g id="node18" class="node"><title>fragments</title><path fill="#c0c0c0" stroke="#000000" d="M526.187,-861.9898C526.187,-863.7957 496.9691,-865.2626 461,-865.2626 425.0309,-865.2626 395.813,-863.7957 395.813,-861.9898 395.813,-861.9898 395.813,-832.5353 395.813,-832.5353 395.813,-830.7295 425.0309,-829.2626 461,-829.2626 496.9691,-829.2626 526.187,-830.7295 526.187,-832.5353 526.187,-832.5353 526.187,-861.9898 526.187,-861.9898"></path><path fill="none" stroke="#000000" d="M526.187,-861.9898C526.187,-860.184 496.9691,-858.7171 461,-858.7171 425.0309,-858.7171 395.813,-860.184 395.813,-861.9898"></path><text text-anchor="middle" x="461" y="-843.0626" font-family="Times,serif" font-size="14.00" fill="#000000">query fragments *.js</text></g><g id="edge18" class="edge"><title>fragments-&gt;runQueries</title><path fill="none" stroke="#000000" d="M438.5415,-829.0939C427.4122,-820.0904 413.8219,-809.0961 401.8315,-799.3959"></path><polygon fill="#000000" stroke="#000000" points="403.8118,-796.496 393.8359,-792.9276 399.4091,-801.9382 403.8118,-796.496"></polygon></g><g id="node20" class="node"><title>componentsWithQueries</title><polygon fill="#87ceeb" stroke="#000000" points="370.6347,-713.2645 273.3653,-713.2645 273.3653,-672.0607 370.6347,-672.0607 370.6347,-713.2645"></polygon><text text-anchor="start" x="281.183" y="-696.8626" font-family="Times,serif" font-size="14.00" fill="#000000">components</text><text text-anchor="middle" x="322" y="-680.0626" font-family="Times,serif" font-size="14.00" fill="#000000"> (with queries)</text></g><g id="edge22" class="edge"><title>runQueries-&gt;componentsWithQueries</title><path fill="none" stroke="#000000" d="M361.1507,-757.3396C354.9254,-747.0553 346.9544,-733.8873 339.8315,-722.1203"></path><polygon fill="#000000" stroke="#000000" points="342.7655,-720.2083 334.5929,-713.466 336.7772,-723.8333 342.7655,-720.2083"></polygon></g><g id="node21" class="node"><title>queryResults</title><g id="a_node21"><a title="JSON result\l /public/static/d/dataPath" class="css-0" href="/docs/query-execution/#save-query-results-to-redux-and-disk"><path fill="#98fb98" stroke="#000000" d="M688.3115,-716.1447C688.3115,-719.024 653.6593,-721.3629 611,-721.3629 568.3407,-721.3629 533.6885,-719.024 533.6885,-716.1447 533.6885,-716.1447 533.6885,-669.1805 533.6885,-669.1805 533.6885,-666.3011 568.3407,-663.9622 611,-663.9622 653.6593,-663.9622 688.3115,-666.3011 688.3115,-669.1805 688.3115,-669.1805 688.3115,-716.1447 688.3115,-716.1447"></path><path fill="none" stroke="#000000" d="M688.3115,-716.1447C688.3115,-713.2653 653.6593,-710.9264 611,-710.9264 568.3407,-710.9264 533.6885,-713.2653 533.6885,-716.1447"></path><text text-anchor="start" x="541.5943" y="-696.8626" font-family="Times,serif" font-size="14.00" fill="#000000">JSON result</text><text text-anchor="middle" x="611" y="-680.0626" font-family="Times,serif" font-size="14.00" fill="#000000"> /public/static/d/dataPath</text></a></g></g><g id="edge23" class="edge"><title>runQueries-&gt;queryResults</title><path fill="none" stroke="#000000" d="M418.365,-759.2385C448.521,-748.8164 488.7731,-734.905 524.6833,-722.4942"></path><polygon fill="#000000" stroke="#000000" points="525.8877,-725.7811 534.1959,-719.2066 523.6011,-719.1651 525.8877,-725.7811"></polygon></g><g id="node22" class="node"><title>dataPaths</title><polygon fill="#87ceeb" stroke="#000000" points="485.094,-710.6626 388.906,-710.6626 388.906,-674.6626 485.094,-674.6626 485.094,-710.6626"></polygon><text text-anchor="middle" x="437" y="-688.4626" font-family="Times,serif" font-size="14.00" fill="#000000">jsonDataPaths</text></g><g id="edge24" class="edge"><title>runQueries-&gt;dataPaths</title><path fill="none" stroke="#000000" d="M386.104,-757.3396C394.9864,-746.0522 406.6022,-731.2912 416.4938,-718.7212"></path><polygon fill="#000000" stroke="#000000" points="419.2654,-720.8588 422.699,-710.8358 413.7644,-716.5299 419.2654,-720.8588"></polygon></g><g id="node31" class="node"><title>componentChunks</title><g id="a_node31"><a title="component chunks\l component---src-blog-[hash].js" class="css-0" href="/docs/how-code-splitting-works/"><path fill="#98fb98" stroke="#000000" d="M740.0394,-312.1134C740.0394,-314.9927 696.5448,-317.3316 643,-317.3316 589.4552,-317.3316 545.9606,-314.9927 545.9606,-312.1134 545.9606,-312.1134 545.9606,-265.1492 545.9606,-265.1492 545.9606,-262.2698 589.4552,-259.9309 643,-259.9309 696.5448,-259.9309 740.0394,-262.2698 740.0394,-265.1492 740.0394,-265.1492 740.0394,-312.1134 740.0394,-312.1134"></path><path fill="none" stroke="#000000" d="M740.0394,-312.1134C740.0394,-309.234 696.5448,-306.8951 643,-306.8951 589.4552,-306.8951 545.9606,-309.234 545.9606,-312.1134"></path><text text-anchor="start" x="553.9803" y="-292.8313" font-family="Times,serif" font-size="14.00" fill="#000000">component chunks</text><text text-anchor="middle" x="643" y="-276.0313" font-family="Times,serif" font-size="14.00" fill="#000000"> component---src-blog-[hash].js</text></a></g></g><g id="edge40" class="edge"><title>queryResults-&gt;componentChunks</title><path fill="none" stroke="#000000" d="M615.7572,-663.976C620.4736,-633.0065 627,-582.1808 627,-538.0626 627,-538.0626 627,-538.0626 627,-454.6469 627,-411.0132 632.5439,-361.2248 637.105,-327.6464"></path><polygon fill="#000000" stroke="#000000" points="640.6272,-327.7301 638.5431,-317.3423 633.6944,-326.7625 640.6272,-327.7301"></polygon></g><g id="edge25" class="edge"><title>dataPaths-&gt;writePages</title><path fill="none" stroke="#000000" d="M402.2568,-674.6459C394.959,-671.0265 387.2697,-667.3333 380,-664.0626 350.4764,-650.7796 316.6521,-637.2528 290.2459,-627.0601"></path><polygon fill="#000000" stroke="#000000" points="291.4648,-623.7791 280.8747,-623.4624 288.9559,-630.314 291.4648,-623.7791"></polygon></g><g id="node24" class="node"><title>dataJson</title><path fill="#ffe4b5" stroke="#000000" d="M263.1552,-552.7898C263.1552,-554.5957 248.2945,-556.0626 230,-556.0626 211.7055,-556.0626 196.8448,-554.5957 196.8448,-552.7898 196.8448,-552.7898 196.8448,-523.3353 196.8448,-523.3353 196.8448,-521.5295 211.7055,-520.0626 230,-520.0626 248.2945,-520.0626 263.1552,-521.5295 263.1552,-523.3353 263.1552,-523.3353 263.1552,-552.7898 263.1552,-552.7898"></path><path fill="none" stroke="#000000" d="M263.1552,-552.7898C263.1552,-550.984 248.2945,-549.5171 230,-549.5171 211.7055,-549.5171 196.8448,-550.984 196.8448,-552.7898"></path><text text-anchor="middle" x="230" y="-533.8626" font-family="Times,serif" font-size="14.00" fill="#000000">data.json</text></g><g id="edge28" class="edge"><title>writePages-&gt;dataJson</title><path fill="none" stroke="#000000" d="M241.2149,-591.8939C239.6106,-584.1935 237.703,-575.0369 235.9201,-566.4792"></path><polygon fill="#000000" stroke="#000000" points="239.3021,-565.5518 233.8361,-556.4758 232.4493,-566.9795 239.3021,-565.5518"></polygon></g><g id="node25" class="node"><title>asyncRequires</title><path fill="#ffe4b5" stroke="#000000" d="M484.4561,-552.7898C484.4561,-554.5957 459.5998,-556.0626 429,-556.0626 398.4002,-556.0626 373.5439,-554.5957 373.5439,-552.7898 373.5439,-552.7898 373.5439,-523.3353 373.5439,-523.3353 373.5439,-521.5295 398.4002,-520.0626 429,-520.0626 459.5998,-520.0626 484.4561,-521.5295 484.4561,-523.3353 484.4561,-523.3353 484.4561,-552.7898 484.4561,-552.7898"></path><path fill="none" stroke="#000000" d="M484.4561,-552.7898C484.4561,-550.984 459.5998,-549.5171 429,-549.5171 398.4002,-549.5171 373.5439,-550.984 373.5439,-552.7898"></path><text text-anchor="middle" x="429" y="-533.8626" font-family="Times,serif" font-size="14.00" fill="#000000">async-requires.js</text></g><g id="edge29" class="edge"><title>writePages-&gt;asyncRequires</title><path fill="none" stroke="#000000" d="M280.0421,-596.3504C306.9509,-585.8209 344.5775,-571.0974 375.281,-559.083"></path><polygon fill="#000000" stroke="#000000" points="376.9471,-562.1896 384.9841,-555.2862 374.3962,-555.6709 376.9471,-562.1896"></polygon></g><g id="node26" class="node"><title>syncRequires</title><path fill="#ffe4b5" stroke="#000000" d="M179.2409,-552.7898C179.2409,-554.5957 155.8257,-556.0626 127,-556.0626 98.1743,-556.0626 74.7591,-554.5957 74.7591,-552.7898 74.7591,-552.7898 74.7591,-523.3353 74.7591,-523.3353 74.7591,-521.5295 98.1743,-520.0626 127,-520.0626 155.8257,-520.0626 179.2409,-521.5295 179.2409,-523.3353 179.2409,-523.3353 179.2409,-552.7898 179.2409,-552.7898"></path><path fill="none" stroke="#000000" d="M179.2409,-552.7898C179.2409,-550.984 155.8257,-549.5171 127,-549.5171 98.1743,-549.5171 74.7591,-550.984 74.7591,-552.7898"></path><text text-anchor="middle" x="127" y="-533.8626" font-family="Times,serif" font-size="14.00" fill="#000000">sync-requires.js</text></g><g id="edge30" class="edge"><title>writePages-&gt;syncRequires</title><path fill="none" stroke="#000000" d="M219.1044,-594.2619C203.3904,-584.6737 183.0442,-572.2591 165.473,-561.5376"></path><polygon fill="#000000" stroke="#000000" points="166.936,-558.3302 156.5765,-556.1093 163.2899,-564.3057 166.936,-558.3302"></polygon></g><g id="node27" class="node"><title>pagesJson</title><path fill="#ffe4b5" stroke="#000000" d="M355.2096,-552.7898C355.2096,-554.5957 338.5316,-556.0626 318,-556.0626 297.4684,-556.0626 280.7904,-554.5957 280.7904,-552.7898 280.7904,-552.7898 280.7904,-523.3353 280.7904,-523.3353 280.7904,-521.5295 297.4684,-520.0626 318,-520.0626 338.5316,-520.0626 355.2096,-521.5295 355.2096,-523.3353 355.2096,-523.3353 355.2096,-552.7898 355.2096,-552.7898"></path><path fill="none" stroke="#000000" d="M355.2096,-552.7898C355.2096,-550.984 338.5316,-549.5171 318,-549.5171 297.4684,-549.5171 280.7904,-550.984 280.7904,-552.7898"></path><text text-anchor="middle" x="318" y="-533.8626" font-family="Times,serif" font-size="14.00" fill="#000000">pages.json</text></g><g id="edge31" class="edge"><title>writePages-&gt;pagesJson</title><path fill="none" stroke="#000000" d="M262.3,-592.9996C271.2371,-584.1849 282.321,-573.2528 292.2425,-563.4672"></path><polygon fill="#000000" stroke="#000000" points="294.8861,-565.7758 299.5481,-556.2617 289.9706,-560.792 294.8861,-565.7758"></polygon></g><g id="node29" class="node"><title>productionApp</title><g id="a_node29"><a title="production-app.js" class="css-0" href="/docs/production-app/#production-appjs"><path fill="#ffe4b5" stroke="#000000" d="M302.3674,-469.3742C302.3674,-471.18 276.6544,-472.6469 245,-472.6469 213.3456,-472.6469 187.6326,-471.18 187.6326,-469.3742 187.6326,-469.3742 187.6326,-439.9197 187.6326,-439.9197 187.6326,-438.1138 213.3456,-436.6469 245,-436.6469 276.6544,-436.6469 302.3674,-438.1138 302.3674,-439.9197 302.3674,-439.9197 302.3674,-469.3742 302.3674,-469.3742"></path><path fill="none" stroke="#000000" d="M302.3674,-469.3742C302.3674,-467.5684 276.6544,-466.1015 245,-466.1015 213.3456,-466.1015 187.6326,-467.5684 187.6326,-469.3742"></path><text text-anchor="middle" x="245" y="-450.4469" font-family="Times,serif" font-size="14.00" fill="#000000">production-app.js</text></a></g></g><g id="edge34" class="edge"><title>dataJson-&gt;productionApp</title><path fill="none" stroke="#000000" d="M233.2548,-519.9626C235.2007,-509.141 237.7152,-495.1577 239.9181,-482.9076"></path><polygon fill="#000000" stroke="#000000" points="243.4264,-483.1732 241.7516,-472.7116 236.5369,-481.9342 243.4264,-483.1732"></polygon></g><g id="node36" class="node"><title>staticEntry</title><g id="a_node36"><a title="static-entry.js" class="css-0" href="/docs/html-generation/#static-entryjs"><path fill="#ffe4b5" stroke="#000000" d="M194.8074,-209.3429C194.8074,-211.1488 174.2758,-212.6156 149,-212.6156 123.7242,-212.6156 103.1926,-211.1488 103.1926,-209.3429 103.1926,-209.3429 103.1926,-179.8884 103.1926,-179.8884 103.1926,-178.0825 123.7242,-176.6156 149,-176.6156 174.2758,-176.6156 194.8074,-178.0825 194.8074,-179.8884 194.8074,-179.8884 194.8074,-209.3429 194.8074,-209.3429"></path><path fill="none" stroke="#000000" d="M194.8074,-209.3429C194.8074,-207.5371 174.2758,-206.0702 149,-206.0702 123.7242,-206.0702 103.1926,-207.5371 103.1926,-209.3429"></path><text text-anchor="middle" x="149" y="-190.4156" font-family="Times,serif" font-size="14.00" fill="#000000">static-entry.js</text></a></g></g><g id="edge43" class="edge"><title>dataJson-&gt;staticEntry</title><path fill="none" stroke="#000000" d="M207.5749,-520.4434C197.0608,-510.8721 185.4516,-498.1278 179,-484.0626 138.5053,-395.7789 141.9134,-276.8501 146.1215,-223.0963"></path><polygon fill="#000000" stroke="#000000" points="149.6247,-223.2075 146.9886,-212.9458 142.6501,-222.6117 149.6247,-223.2075"></polygon></g><g id="edge33" class="edge"><title>asyncRequires-&gt;productionApp</title><path fill="none" stroke="#000000" d="M389.9783,-520.3723C361.8023,-507.5988 323.5693,-490.266 293.4399,-476.607"></path><polygon fill="#000000" stroke="#000000" points="294.5184,-473.253 283.9654,-472.3117 291.628,-479.6285 294.5184,-473.253"></polygon></g><g id="edge42" class="edge"><title>syncRequires-&gt;staticEntry</title><path fill="none" stroke="#000000" d="M126.3802,-519.7606C125.1186,-475.1557 123.2843,-357.3559 135,-260.0313 136.4878,-247.6717 139.1841,-234.194 141.816,-222.7013"></path><polygon fill="#000000" stroke="#000000" points="145.2634,-223.3329 144.1785,-212.7938 138.4544,-221.7092 145.2634,-223.3329"></polygon></g><g id="node28" class="node"><title>appWebpack</title><g id="a_node28"><a title="configure webpack\l (`build-javascript`)" class="css-0" href="/docs/production-app/#webpack-config"><ellipse fill="#ffffff" stroke="#000000" cx="409" cy="-454.6469" rx="89.1981" ry="29.3315"></ellipse><text text-anchor="start" x="353.9975" y="-458.8469" font-family="Times,serif" font-size="14.00" fill="#000000">configure webpack</text><text text-anchor="middle" x="409" y="-442.0469" font-family="Times,serif" font-size="14.00" fill="#000000"> (`build-javascript`)</text></a></g></g><g id="node30" class="node"><title>buildJavascript</title><g id="a_node30"><a title="build-javascript.js" class="css-0" href="/docs/production-app/"><ellipse fill="#ffffff" stroke="#000000" cx="376" cy="-371.2313" rx="80.492" ry="18"></ellipse><text text-anchor="middle" x="376" y="-367.0313" font-family="Times,serif" font-size="14.00" fill="#000000">build-javascript.js</text></a></g></g><g id="edge32" class="edge"><title>appWebpack-&gt;buildJavascript</title><path fill="none" stroke="#000000" d="M397.4582,-425.4722C394.0383,-416.8275 390.3051,-407.391 386.9255,-398.8482"></path><polygon fill="#000000" stroke="#000000" points="390.0938,-397.3425 383.1605,-389.3312 383.5847,-399.9176 390.0938,-397.3425"></polygon></g><g id="edge35" class="edge"><title>productionApp-&gt;buildJavascript</title><path fill="none" stroke="#000000" d="M273.425,-436.547C293.0466,-424.0528 319.2867,-407.3441 340.3149,-393.9542"></path><polygon fill="#000000" stroke="#000000" points="342.4182,-396.7642 348.9734,-388.4408 338.6584,-390.8597 342.4182,-396.7642"></polygon></g><g id="edge36" class="edge"><title>buildJavascript-&gt;componentChunks</title><path fill="none" stroke="#000000" d="M423.4266,-356.5592C457.4181,-346.0435 504.3879,-331.5128 546.1648,-318.5885"></path><polygon fill="#000000" stroke="#000000" points="547.3054,-321.8994 555.8243,-315.6003 545.2366,-315.2121 547.3054,-321.8994"></polygon></g><g id="node32" class="node"><title>appChunk</title><path fill="#98fb98" stroke="#000000" d="M265.1913,-303.3586C265.1913,-305.1644 245.3841,-306.6313 221,-306.6313 196.6159,-306.6313 176.8087,-305.1644 176.8087,-303.3586 176.8087,-303.3586 176.8087,-273.904 176.8087,-273.904 176.8087,-272.0982 196.6159,-270.6313 221,-270.6313 245.3841,-270.6313 265.1913,-272.0982 265.1913,-273.904 265.1913,-273.904 265.1913,-303.3586 265.1913,-303.3586"></path><path fill="none" stroke="#000000" d="M265.1913,-303.3586C265.1913,-301.5527 245.3841,-300.0858 221,-300.0858 196.6159,-300.0858 176.8087,-301.5527 176.8087,-303.3586"></path><text text-anchor="middle" x="221" y="-284.4313" font-family="Times,serif" font-size="14.00" fill="#000000">app-[hash].js</text></g><g id="edge37" class="edge"><title>buildJavascript-&gt;appChunk</title><path fill="none" stroke="#000000" d="M344.6334,-354.5159C321.0768,-341.9626 288.5796,-324.6447 262.8143,-310.9143"></path><polygon fill="#000000" stroke="#000000" points="264.1267,-307.6477 253.6555,-306.0335 260.8346,-313.8253 264.1267,-307.6477"></polygon></g><g id="node33" class="node"><title>webpackStats</title><g id="a_node33"><a title="webpack.stats.json" class="css-0" href="/docs/how-code-splitting-works/#webpackstatsjson"><path fill="#98fb98" stroke="#000000" d="M404.4706,-303.3586C404.4706,-305.1644 377.3667,-306.6313 344,-306.6313 310.6333,-306.6313 283.5294,-305.1644 283.5294,-303.3586 283.5294,-303.3586 283.5294,-273.904 283.5294,-273.904 283.5294,-272.0982 310.6333,-270.6313 344,-270.6313 377.3667,-270.6313 404.4706,-272.0982 404.4706,-273.904 404.4706,-273.904 404.4706,-303.3586 404.4706,-303.3586"></path><path fill="none" stroke="#000000" d="M404.4706,-303.3586C404.4706,-301.5527 377.3667,-300.0858 344,-300.0858 310.6333,-300.0858 283.5294,-301.5527 283.5294,-303.3586"></path><text text-anchor="middle" x="344" y="-284.4313" font-family="Times,serif" font-size="14.00" fill="#000000">webpack.stats.json</text></a></g></g><g id="edge38" class="edge"><title>buildJavascript-&gt;webpackStats</title><path fill="none" stroke="#000000" d="M368.8982,-352.8997C364.7552,-342.2057 359.4452,-328.4993 354.794,-316.4933"></path><polygon fill="#000000" stroke="#000000" points="357.9582,-314.972 351.082,-306.9117 351.4309,-317.5008 357.9582,-314.972"></polygon></g><g id="node34" class="node"><title>chunkMap</title><g id="a_node34"><a title="chunk-map.json" class="css-0" href="/docs/how-code-splitting-works/#chunk-mapjson"><path fill="#98fb98" stroke="#000000" d="M527.8158,-303.3586C527.8158,-305.1644 504.1429,-306.6313 475,-306.6313 445.8571,-306.6313 422.1842,-305.1644 422.1842,-303.3586 422.1842,-303.3586 422.1842,-273.904 422.1842,-273.904 422.1842,-272.0982 445.8571,-270.6313 475,-270.6313 504.1429,-270.6313 527.8158,-272.0982 527.8158,-273.904 527.8158,-273.904 527.8158,-303.3586 527.8158,-303.3586"></path><path fill="none" stroke="#000000" d="M527.8158,-303.3586C527.8158,-301.5527 504.1429,-300.0858 475,-300.0858 445.8571,-300.0858 422.1842,-301.5527 422.1842,-303.3586"></path><text text-anchor="middle" x="475" y="-284.4313" font-family="Times,serif" font-size="14.00" fill="#000000">chunk-map.json</text></a></g></g><g id="edge39" class="edge"><title>buildJavascript-&gt;chunkMap</title><path fill="none" stroke="#000000" d="M396.9954,-353.7139C411.1088,-341.9385 429.912,-326.2501 445.521,-313.2269"></path><polygon fill="#000000" stroke="#000000" points="447.9144,-315.7883 453.3505,-306.6944 443.4298,-310.4134 447.9144,-315.7883"></polygon></g><g id="edge44" class="edge"><title>webpackStats-&gt;staticEntry</title><path fill="none" stroke="#000000" d="M303.8755,-270.8716C275.7232,-258.2276 237.3118,-240.607 204,-224.0313 199.4511,-221.7678 194.722,-219.3458 190.0316,-216.8995"></path><polygon fill="#000000" stroke="#000000" points="191.5953,-213.7673 181.117,-212.2005 188.3312,-219.9597 191.5953,-213.7673"></polygon></g><g id="edge45" class="edge"><title>chunkMap-&gt;staticEntry</title><path fill="none" stroke="#000000" d="M440.547,-270.8048C431.7426,-266.7913 422.1689,-262.8815 413,-260.0313 322.9918,-232.0514 293.145,-254.6502 204,-224.0313 198.4233,-222.1158 192.7306,-219.6844 187.2235,-217.043"></path><polygon fill="#000000" stroke="#000000" points="188.6852,-213.8599 178.184,-212.4538 185.5163,-220.1016 188.6852,-213.8599"></polygon></g><g id="node35" class="node"><title>htmlWebpack</title><g id="a_node35"><a title="configure webpack\l (`build-html`)" class="css-0" href="/docs/html-generation/#webpack"><ellipse fill="#ffffff" stroke="#000000" cx="300" cy="-194.6156" rx="86.7948" ry="29.3315"></ellipse><text text-anchor="start" x="246.5543" y="-198.8156" font-family="Times,serif" font-size="14.00" fill="#000000">configure webpack</text><text text-anchor="middle" x="300" y="-182.0156" font-family="Times,serif" font-size="14.00" fill="#000000"> (`build-html`)</text></a></g></g><g id="edge41" class="edge"><title>htmlWebpack-&gt;buildHtml</title><path fill="none" stroke="#000000" d="M254.2852,-169.3618C232.7567,-157.469 207.3802,-143.4505 186.9353,-132.1563"></path><polygon fill="#000000" stroke="#000000" points="188.3659,-128.9481 177.9203,-127.1762 184.9811,-135.0753 188.3659,-128.9481"></polygon></g><g id="edge46" class="edge"><title>staticEntry-&gt;buildHtml</title><path fill="none" stroke="#000000" d="M149,-176.5157C149,-165.6941 149,-151.7108 149,-139.4607"></path><polygon fill="#000000" stroke="#000000" points="152.5001,-139.2646 149,-129.2646 145.5001,-139.2647 152.5001,-139.2646"></polygon></g><g id="node38" class="node"><title>pageRenderer</title><path fill="#98fb98" stroke="#000000" d="M202.0515,-43.3273C202.0515,-45.1331 178.273,-46.6 149,-46.6 119.727,-46.6 95.9485,-45.1331 95.9485,-43.3273 95.9485,-43.3273 95.9485,-13.8727 95.9485,-13.8727 95.9485,-12.0669 119.727,-10.6 149,-10.6 178.273,-10.6 202.0515,-12.0669 202.0515,-13.8727 202.0515,-13.8727 202.0515,-43.3273 202.0515,-43.3273"></path><path fill="none" stroke="#000000" d="M202.0515,-43.3273C202.0515,-41.5214 178.273,-40.0545 149,-40.0545 119.727,-40.0545 95.9485,-41.5214 95.9485,-43.3273"></path><text text-anchor="middle" x="149" y="-24.4" font-family="Times,serif" font-size="14.00" fill="#000000">page-renderer.js</text></g><g id="edge47" class="edge"><title>buildHtml-&gt;pageRenderer</title><path fill="none" stroke="#000000" d="M143.3216,-93.277C142.2232,-82.6346 141.9692,-68.9042 142.5597,-56.8339"></path><polygon fill="#000000" stroke="#000000" points="146.0566,-57.0021 143.296,-46.7732 139.0753,-56.4911 146.0566,-57.0021"></polygon></g><g id="node39" class="node"><title>htmlFiles</title><path fill="#98fb98" stroke="#000000" d="M309.5983,-52.0821C309.5983,-54.9614 289.6086,-57.3004 265,-57.3004 240.3914,-57.3004 220.4017,-54.9614 220.4017,-52.0821 220.4017,-52.0821 220.4017,-5.1179 220.4017,-5.1179 220.4017,-2.2386 240.3914,.1004 265,.1004 289.6086,.1004 309.5983,-2.2386 309.5983,-5.1179 309.5983,-5.1179 309.5983,-52.0821 309.5983,-52.0821"></path><path fill="none" stroke="#000000" d="M309.5983,-52.0821C309.5983,-49.2028 289.6086,-46.8639 265,-46.8639 240.3914,-46.8639 220.4017,-49.2028 220.4017,-52.0821"></path><text text-anchor="start" x="228.4509" y="-32.8" font-family="Times,serif" font-size="14.00" fill="#000000">html files</text><text text-anchor="middle" x="265" y="-16" font-family="Times,serif" font-size="14.00" fill="#000000"> (index.html)</text></g><g id="edge50" class="edge"><title>buildHtml-&gt;htmlFiles</title><path fill="none" stroke="#000000" d="M172.4743,-94.4847C185.5451,-85.1773 202.294,-73.251 217.9407,-62.1095"></path><polygon fill="#000000" stroke="#000000" points="220.3738,-64.6736 226.4895,-56.0221 216.3135,-58.9715 220.3738,-64.6736"></polygon></g><g id="edge49" class="edge"><title>pageRenderer-&gt;buildHtml</title><path fill="none" stroke="#000000" d="M154.704,-46.7732C155.7893,-57.4637 156.03,-71.2049 155.4263,-83.249"></path><polygon fill="#000000" stroke="#000000" points="151.932,-83.0444 154.6784,-93.277 158.9126,-83.5651 151.932,-83.0444"></polygon></g></g></svg>